<?xml version="1.0" encoding="utf-8"?>
<svg width="95" height="95" viewBox="0 0 95 95" fill="none" stroke="none" version="1.1" xmlns:xlink="http://www.w3.org/1999/xlink" xmlns="http://www.w3.org/2000/svg">
  <defs>
    <path id="path_1" d="M95 0L95 0L95 95L0 95L0 0L95 0Z" />
    <rect id="rect_2" x="0" y="0" width="95" height="95" />
    <clipPath id="clip_path_3">
      <use xlink:href="#rect_2" />
    </clipPath>
  </defs>
  <g id="ph:tree-light" opacity="1" clip-path="url(#clip_path_3)">
    <g>
      <use xlink:href="#path_1" style="mix-blend-mode:normal;" />
      <g>
        <path id="Vector" d="M66.2589 17.1175C64.2017 12.058 60.6825 7.72692 56.1511 4.67779C51.6198 1.62865 46.2821 0 40.8204 0C35.3587 0 30.021 1.62865 25.4897 4.67779C20.9583 7.72692 17.4391 12.058 15.3819 17.1175C10.8052 19.1471 6.9157 22.4613 4.18537 26.6579C1.45504 30.8545 0.00115538 35.7532 8.86917e-05 40.7599C-0.0370207 54.5312 11.5522 66.4396 25.305 66.8107C29.9476 66.9194 34.5351 65.787 38.5938 63.5302L38.5938 79.4278C38.5938 80.0184 38.8284 80.5847 39.246 81.0023C39.6635 81.4198 40.2299 81.6544 40.8204 81.6544C41.4109 81.6544 41.9773 81.4198 42.3948 81.0023C42.8124 80.5847 43.047 80.0184 43.047 79.4278L43.047 63.5302C46.9061 65.6769 51.2482 66.8058 55.6642 66.8107L56.321 66.8107C70.0886 66.4396 81.6778 54.5274 81.6407 40.7599C81.6396 35.7532 80.1858 30.8545 77.4554 26.6579C74.7251 22.4613 70.8356 19.1471 66.2589 17.1175L66.2589 17.1175ZM56.2208 62.3575C51.5002 62.482 46.8701 61.0473 43.047 58.2755L43.047 42.2108L59.6274 33.9206C60.1559 33.6568 60.558 33.1939 60.7452 32.6337C60.9325 32.0735 60.8894 31.4618 60.6257 30.9333C60.3619 30.4048 59.899 30.0027 59.3388 29.8155C58.7785 29.6283 58.1669 29.6713 57.6384 29.9351L43.047 37.2308L43.047 25.9903C43.047 25.3998 42.8124 24.8335 42.3948 24.4159C41.9773 23.9984 41.4109 23.7638 40.8204 23.7638C40.2299 23.7638 39.6635 23.9984 39.246 24.4159C38.8284 24.8335 38.5938 25.3998 38.5938 25.9903L38.5938 46.137L24.0024 38.8413C23.4739 38.5775 22.8623 38.5345 22.302 38.7217C21.7418 38.909 21.2789 39.311 21.0151 39.8396C20.7514 40.3681 20.7084 40.9797 20.8956 41.5399C21.0828 42.1002 21.4849 42.5631 22.0134 42.8269L38.5938 51.1171L38.5938 58.2755C34.7679 61.0419 30.1398 62.4759 25.42 62.3575C14.0237 62.0718 4.42353 52.1896 4.45321 40.7821C4.45299 36.4933 5.73895 32.3029 8.14493 28.7525C10.5509 25.2021 13.9663 22.4547 17.9499 20.8655C18.2391 20.7487 18.5006 20.5723 18.7173 20.3479C18.934 20.1235 19.1012 19.8561 19.2079 19.563C20.8259 15.1313 23.767 11.3041 27.633 8.60005C31.4989 5.89594 36.1026 4.44564 40.8204 4.44564C45.5382 4.44564 50.1419 5.89594 54.0078 8.60005C57.8738 11.3041 60.815 15.1313 62.4329 19.563C62.5396 19.8561 62.7068 20.1235 62.9235 20.3479C63.1402 20.5723 63.4017 20.7487 63.6909 20.8655C67.673 22.4536 71.0875 25.1991 73.4934 28.7474C75.8993 32.2958 77.1861 36.4839 77.1876 40.771C77.2173 52.1821 67.6171 62.0606 56.2208 62.3575L56.2208 62.3575Z" style="fill:#CF1D05;fill-rule:evenodd;mix-blend-mode:normal;" transform="translate(6.68 6.666)" />
      </g>
    </g>
  </g>
</svg>