<?xml version="1.0" encoding="utf-8"?>
<svg width="95" height="95" viewBox="0 0 95 95" fill="none" stroke="none" version="1.1" xmlns:xlink="http://www.w3.org/1999/xlink" xmlns="http://www.w3.org/2000/svg">
  <defs>
    <path id="path_1" d="M95 0L95 0L95 95L0 95L0 0L95 0Z" />
    <rect id="rect_2" x="0" y="0" width="95" height="95" />
    <clipPath id="clip_path_3">
      <use xlink:href="#rect_2" />
    </clipPath>
  </defs>
  <g id="f7:doc-person" opacity="1" clip-path="url(#clip_path_3)">
    <g>
      <use xlink:href="#path_1" style="mix-blend-mode:normal;" />
      <g>
        <path id="Vector" d="M12.3263 0L31.2126 0C35.5385 0 37.9847 0.627679 40.8585 3.44375L41.191 3.77625L63.1394 26.0826C65.7722 28.7799 66.6069 30.7715 66.8155 34.2848L66.8563 35.1958L66.8732 36.178L66.8766 72.8005C66.8766 80.9044 62.9426 85.0776 55.0389 85.2404L54.5504 85.2455L12.3263 85.2455C4.29875 85.2455 0.167947 81.2742 0.00508976 73.2942L0 72.8005L0 12.484C0 4.38018 3.97134 0.169643 11.8394 0.00508928L12.3263 0L12.3263 0ZM30.3372 6.40062L12.6842 6.40062C8.68063 6.40062 6.54313 8.52455 6.40741 12.2279L6.40063 12.6045L6.40063 72.6818C6.40063 76.5293 8.41259 78.7007 12.2533 78.8364L12.6435 78.8449L54.2331 78.8449C58.235 78.8449 60.3369 76.7956 60.4692 73.0601L60.476 72.6818L60.476 36.9771L37.8117 36.9771C33.0227 36.9771 30.4831 34.6512 30.3423 29.925L30.3372 29.5009L30.3372 6.40062L30.3372 6.40062ZM36.3409 7.63393L36.3409 28.746C36.3409 30.2439 36.9041 30.8954 38.2629 30.9666L38.5276 30.9734L59.241 30.9734L36.3409 7.63393L36.3409 7.63393ZM33.4468 42.5634C37.1213 42.5634 40.3139 45.7052 40.3139 49.9463C40.3139 54.2382 37.1382 57.5361 33.4468 57.5361C29.7723 57.5361 26.5796 54.2382 26.5796 49.9819C26.5796 45.7747 29.7723 42.5634 33.4468 42.5634L33.4468 42.5634ZM33.4468 60.6083C42.3412 60.6083 47.8868 66.7205 47.8868 71.1499C47.8868 72.5953 47.0063 73.3654 44.5703 73.4299L44.2293 73.4333L22.6643 73.4333C19.9517 73.4333 18.9898 72.6614 18.9898 71.1499C18.9898 66.7222 24.5371 60.6083 33.4468 60.6083L33.4468 60.6083Z" style="fill:#CF1D05;fill-rule:evenodd;mix-blend-mode:normal;" transform="translate(14.91 4.877)" />
      </g>
    </g>
  </g>
</svg>