<?xml version="1.0" encoding="utf-8"?>
<svg width="95" height="95" viewBox="0 0 95 95" fill="none" stroke="none" version="1.1" xmlns:xlink="http://www.w3.org/1999/xlink" xmlns="http://www.w3.org/2000/svg">
  <defs>
    <path id="path_1" d="M95 0L95 0L95 95L0 95L0 0L95 0Z" />
    <rect id="rect_2" x="0" y="0" width="95" height="95" />
    <clipPath id="clip_path_3">
      <use xlink:href="#rect_2" />
    </clipPath>
  </defs>
  <g id="ph:detective-fill" opacity="1" clip-path="url(#clip_path_3)">
    <g>
      <use xlink:href="#path_1" style="mix-blend-mode:normal;" />
      <g>
        <path id="Vector" d="M95 29.6839C95 30.4712 94.6872 31.2263 94.1305 31.7831C93.5737 32.3398 92.8186 32.6526 92.0312 32.6526L2.96875 32.6526C2.18139 32.6526 1.42628 32.3398 0.869527 31.7831C0.312778 31.2263 0 30.4712 0 29.6839C0 28.8965 0.312778 28.1414 0.869527 27.5846C1.42628 27.0279 2.18139 26.7151 2.96875 26.7151L13.3297 26.7151L30.9566 2.44188C31.4908 1.70849 32.1859 1.10727 32.9886 0.684386C33.7914 0.261501 34.6803 0.0282011 35.5872 0.00240135C36.4942 -0.0233984 37.3949 0.158989 38.2204 0.535557C39.0459 0.912125 39.774 1.47286 40.349 2.17469L45.1176 7.70399L45.1918 7.78934C45.4681 8.13645 45.8191 8.41678 46.2188 8.60945C46.6184 8.80213 47.0563 8.90219 47.5 8.90219C47.9437 8.90219 48.3816 8.80213 48.7812 8.60945C49.1809 8.41678 49.5319 8.13645 49.8082 7.78934L49.8824 7.70399L54.651 2.17469C55.226 1.47286 55.9541 0.912125 56.7796 0.535557C57.6051 0.158989 58.5058 -0.0233984 59.4128 0.00240135C60.3197 0.0282011 61.2086 0.261501 62.0114 0.684386C62.8141 1.10727 63.5092 1.70849 64.0434 2.44188L81.6703 26.7151L92.0312 26.7151C92.8186 26.7151 93.5737 27.0279 94.1305 27.5846C94.6872 28.1414 95 28.8965 95 29.6839L95 29.6839ZM66.7969 38.5901C63.5112 38.5908 60.341 39.8022 57.8923 41.9929C55.4435 44.1836 53.8879 47.1998 53.5229 50.4651L41.4771 50.4651C41.1112 47.2028 39.557 44.1894 37.1109 42C34.6649 39.8106 31.4984 38.5985 28.2156 38.5949C24.9328 38.5913 21.7637 39.7965 19.3129 41.9806C16.8621 44.1647 15.3012 47.1747 14.9282 50.4362C14.5552 53.6977 15.396 56.9824 17.2904 59.6634C19.1847 62.3444 21.9999 64.2341 25.1987 64.9719C28.3975 65.7096 31.756 65.2438 34.6332 63.6632C37.5104 62.0827 39.705 59.4981 40.798 56.4026L54.202 56.4026C55.0184 58.7118 56.4539 60.752 58.3515 62.3004C60.2492 63.8488 62.536 64.8457 64.962 65.1822C67.388 65.5187 69.8598 65.1817 72.1073 64.2083C74.3547 63.2348 76.2913 61.6622 77.7053 59.6624C79.1193 57.6626 79.9564 55.3125 80.125 52.8691C80.2936 50.4257 79.7872 47.983 78.6613 45.8079C77.5353 43.6328 75.8331 41.8092 73.7406 40.5362C71.6482 39.2633 69.2461 38.59 66.7969 38.5901L66.7969 38.5901Z" style="fill:#CF1D05;fill-rule:evenodd;mix-blend-mode:normal;" transform="translate(0 14.847)" />
      </g>
    </g>
  </g>
</svg>